<?xml version="1.0" standalone="no"?>
<!DOCTYPE svg PUBLIC "-//W3C//DTD SVG 20010904//EN"
 "http://www.w3.org/TR/2001/REC-SVG-20010904/DTD/svg10.dtd">
<svg version="1.0" xmlns="http://www.w3.org/2000/svg"
 width="1024.000000pt" height="1024.000000pt" viewBox="0 0 1024.000000 1024.000000"
 preserveAspectRatio="xMidYMid meet">

<g transform="translate(0.000000,1024.000000) scale(0.100000,-0.100000)"
fill="#000000" stroke="none">
<path d="M6755 7273 c-60 -19 -151 -43 -200 -53 -98 -19 -285 -78 -285 -89 0
-4 20 -32 45 -62 24 -30 55 -68 69 -85 14 -17 30 -42 35 -55 17 -40 76 -132
87 -136 10 -3 117 136 144 187 7 14 50 75 95 135 84 113 130 184 124 189 -2 2
-53 -12 -114 -31z"/>
<path d="M3910 7295 c0 -8 51 -79 86 -119 52 -61 184 -242 184 -253 0 -7 74
-106 105 -141 2 -2 13 14 24 36 22 43 103 165 131 197 24 28 60 107 60 132 0
17 -8 22 -52 27 -69 9 -258 54 -280 66 -10 6 -32 10 -50 10 -18 0 -72 11 -120
24 -49 14 -88 23 -88 21z"/>
<path d="M5283 7156 c-45 -23 -88 -48 -95 -53 -7 -6 -47 -29 -88 -50 -80 -41
-285 -174 -360 -233 -110 -86 -230 -207 -230 -232 0 -20 140 -144 220 -195 30
-20 57 -39 60 -43 9 -14 104 -79 155 -106 28 -15 64 -37 80 -49 47 -35 292
-165 311 -165 3 0 17 -9 31 -20 34 -27 48 -25 93 10 21 17 54 36 72 42 18 6
40 16 48 23 8 6 47 29 85 49 39 21 79 46 90 55 11 10 42 28 69 41 27 13 63 35
80 50 17 15 60 46 96 70 36 24 70 49 77 54 7 6 39 31 71 56 77 59 115 116 103
156 -17 55 -23 64 -75 101 -28 21 -77 61 -108 90 -31 29 -76 62 -100 74 -24
12 -63 38 -87 57 -69 56 -156 110 -224 138 -34 14 -71 34 -82 45 -30 27 -150
79 -182 79 -16 0 -65 -20 -110 -44z m-132 -320 c-30 -32 -58 -125 -66 -218 -3
-38 16 -136 31 -160 5 -7 9 -19 11 -27 1 -8 21 -34 45 -59 24 -24 34 -40 22
-34 -11 6 -26 18 -33 26 -7 8 -36 22 -64 30 -38 11 -82 39 -160 102 -60 47
-111 93 -114 102 -8 19 53 74 113 103 22 11 56 35 74 54 19 19 38 35 43 35 5
0 27 16 50 35 47 41 84 49 48 11z m530 -1 c22 -14 49 -35 60 -46 10 -10 50
-40 87 -65 37 -26 73 -55 80 -66 8 -10 26 -30 40 -44 21 -21 24 -27 12 -32 -8
-3 -28 -19 -44 -35 -71 -70 -326 -216 -326 -186 0 5 7 12 15 15 25 10 63 85
81 159 14 60 14 82 4 155 -7 50 -22 102 -35 128 -13 23 -22 42 -19 42 2 0 22
-11 45 -25z"/>
<path d="M6500 6432 c0 -7 -17 -39 -38 -70 -21 -31 -55 -86 -75 -122 -20 -36
-54 -92 -76 -125 l-40 -60 42 -7 c23 -4 132 -27 242 -53 244 -56 305 -68 312
-61 6 6 -54 91 -110 156 -21 25 -51 65 -65 90 -28 48 -70 108 -127 180 -19 25
-42 54 -50 65 -8 12 -14 15 -15 7z"/>
<path d="M4244 6381 c-23 -25 -49 -61 -59 -80 -22 -44 -124 -193 -141 -206
-16 -13 -125 -177 -121 -182 2 -2 21 4 42 13 38 15 277 72 438 104 48 9 93 22
98 27 7 7 -1 28 -25 66 -20 31 -36 59 -36 62 0 3 -16 29 -35 58 -19 28 -35 56
-35 61 0 13 -71 126 -78 125 -4 -1 -26 -22 -48 -48z"/>
<path d="M5362 5723 c-11 -16 -44 -73 -73 -128 -29 -55 -72 -129 -96 -164 -24
-36 -43 -70 -43 -77 0 -12 -49 -97 -88 -151 -12 -17 -39 -64 -60 -105 -21 -40
-62 -110 -90 -155 -29 -46 -50 -83 -48 -83 2 0 30 16 62 35 33 19 90 51 127
72 37 21 127 77 200 126 94 62 138 86 154 82 24 -6 106 -57 174 -109 25 -19
70 -46 100 -59 30 -13 60 -31 68 -40 7 -10 17 -17 22 -17 5 0 36 -19 70 -41
33 -23 62 -39 66 -36 10 11 -31 101 -70 150 -22 27 -58 88 -80 136 -22 47 -57
111 -77 141 -43 64 -90 143 -107 182 -6 15 -34 62 -62 106 -28 43 -51 82 -51
86 0 15 -53 76 -66 76 -7 0 -21 -12 -32 -27z"/>
<path d="M2578 4476 c-39 -40 -68 -93 -68 -123 1 -10 7 -29 15 -43 9 -16 14
-56 15 -116 l0 -92 -42 16 c-27 10 -78 16 -138 16 -82 1 -102 -3 -145 -24
-144 -72 -244 -191 -273 -325 -31 -146 -21 -269 33 -394 43 -100 83 -156 138
-191 148 -94 271 -95 380 -4 40 33 54 30 62 -13 12 -67 20 -75 73 -68 26 4 63
11 82 17 44 13 140 84 140 103 0 9 -15 22 -33 31 l-34 16 5 599 5 598 -29 11
c-16 6 -56 14 -89 17 -61 5 -62 5 -97 -31z m-105 -531 c66 -27 67 -33 67 -292
l0 -232 -41 -38 c-22 -21 -52 -43 -67 -50 -42 -19 -103 -15 -152 10 -42 21
-47 27 -73 102 -26 76 -28 87 -23 210 4 104 9 138 25 172 12 23 21 46 21 51 0
15 54 59 85 70 44 15 118 14 158 -3z"/>
<path d="M7555 4468 c-28 -17 -40 -30 -59 -65 -20 -40 -20 -57 -1 -108 22 -56
67 -85 132 -85 45 0 55 4 92 40 38 37 41 44 41 91 0 48 -3 55 -44 95 -39 40
-48 44 -92 44 -27 0 -58 -6 -69 -12z"/>
<path d="M8253 4429 c-18 -11 -33 -25 -33 -29 0 -5 -12 -23 -27 -41 -26 -31
-28 -40 -32 -146 l-3 -113 -69 0 -70 0 3 -92 3 -93 62 -3 62 -3 3 -322 3 -322
28 -48 c15 -26 47 -60 69 -75 84 -55 286 -38 350 30 26 28 28 35 28 119 l0 89
-125 0 -125 0 2 263 3 262 118 3 117 3 0 104 0 105 -115 0 -115 0 0 139 c0
118 -3 142 -17 159 -27 32 -81 37 -120 11z m-155 -366 c-10 -2 -26 -2 -35 0
-10 3 -2 5 17 5 19 0 27 -2 18 -5z"/>
<path d="M3450 4115 c-86 -18 -174 -49 -210 -75 -25 -18 -30 -28 -30 -63 0
-77 11 -119 29 -112 58 22 291 75 332 75 52 0 98 -18 137 -53 18 -17 22 -31
22 -84 l0 -63 -77 0 c-135 0 -241 -24 -374 -83 -117 -52 -184 -214 -144 -351
22 -73 83 -146 150 -178 43 -20 66 -23 165 -23 100 0 122 3 167 24 35 15 60
35 74 57 25 41 37 43 44 7 4 -16 8 -39 11 -52 5 -22 8 -23 58 -18 57 6 140 42
168 74 12 13 15 27 11 44 -3 13 -7 139 -10 279 -6 402 -19 472 -95 531 -48 37
-65 45 -145 63 -85 19 -193 19 -283 1z m278 -549 c2 -11 1 -61 -3 -112 l-7
-92 -51 -28 c-43 -23 -67 -29 -138 -32 -83 -4 -87 -3 -119 25 -25 22 -33 39
-37 75 -13 114 32 149 222 173 121 15 129 15 133 -9z"/>
<path d="M4513 4111 c-84 -24 -111 -43 -119 -87 -8 -42 3 -159 16 -185 16 -29
12 -394 -5 -469 -8 -36 -14 -92 -15 -126 0 -87 15 -99 129 -99 104 0 151 18
175 69 17 36 14 59 -13 89 -13 16 -16 54 -16 247 l0 228 25 27 c37 40 87 62
156 68 68 5 109 26 118 60 19 71 1 162 -38 189 -35 24 -188 -8 -248 -52 -38
-28 -48 -25 -48 14 0 51 -17 55 -117 27z"/>
<path d="M5665 4123 c-47 -13 -107 -46 -150 -83 -25 -22 -50 -40 -56 -40 -5 0
-6 23 -3 56 l7 56 -69 -4 c-114 -6 -278 -102 -245 -142 7 -8 25 -16 39 -18
l27 -3 0 -320 c0 -320 0 -320 -21 -323 -15 -2 -23 -12 -26 -30 -6 -45 2 -70
32 -102 28 -30 29 -30 137 -30 106 0 110 1 135 28 55 59 61 114 13 132 l-25
10 0 248 0 249 35 46 c64 83 171 87 216 7 11 -19 15 -85 17 -292 l3 -266 -23
-4 c-59 -8 -15 -138 52 -152 52 -10 169 -7 193 5 71 37 89 99 42 143 l-25 23
0 300 0 300 -31 64 c-17 35 -35 71 -39 79 -20 41 -170 81 -235 63z m-418 -119
c-3 -3 -12 -4 -19 -1 -8 3 -5 6 6 6 11 1 17 -2 13 -5z"/>
<path d="M6595 4086 c-105 -26 -170 -66 -267 -163 -99 -99 -145 -363 -84 -478
9 -16 16 -40 16 -52 0 -21 70 -109 116 -145 33 -27 125 -65 204 -86 51 -13
205 -5 260 13 30 10 60 21 65 25 6 5 27 11 47 15 36 7 131 79 168 129 56 73
100 195 100 272 0 68 -38 223 -66 270 -15 25 -38 53 -53 61 -14 9 -39 31 -56
49 -67 71 -165 104 -304 103 -53 0 -118 -6 -146 -13z m366 -203 c61 -36 55
-156 -17 -293 -15 -28 -34 -56 -43 -63 -10 -6 -28 -27 -42 -45 -33 -46 -134
-110 -185 -118 -23 -3 -61 -3 -85 1 -99 17 -158 147 -114 251 28 68 150 204
183 204 9 0 33 10 52 22 86 56 196 73 251 41z"/>
<path d="M7510 4068 c0 -7 -20 -35 -45 -62 -25 -27 -42 -53 -39 -57 3 -5 20
-9 38 -9 l34 0 7 -263 c7 -265 6 -284 -22 -346 -8 -18 -16 -54 -16 -79 -2 -44
-1 -46 48 -75 42 -26 60 -30 114 -29 50 1 71 6 102 26 52 35 57 62 30 166 -20
79 -22 108 -21 406 l0 322 -31 6 c-59 11 -199 7 -199 -6z"/>
<path d="M5065 3970 c-3 -5 -4 -10 -1 -10 2 0 11 -3 20 -6 11 -4 16 -1 16 10
0 18 -25 22 -35 6z"/>
<path d="M5168 3833 c6 -2 18 -2 25 0 6 3 1 5 -13 5 -14 0 -19 -2 -12 -5z"/>
<path d="M10080 80 l0 -80 80 0 80 0 0 80 0 80 -80 0 -80 0 0 -80z"/>
</g>
</svg>
