<?xml version="1.0" standalone="no"?>
<!DOCTYPE svg PUBLIC "-//W3C//DTD SVG 20010904//EN"
 "http://www.w3.org/TR/2001/REC-SVG-20010904/DTD/svg10.dtd">
<svg version="1.0" xmlns="http://www.w3.org/2000/svg"
 width="1024.000000pt" height="1024.000000pt" viewBox="0 0 1024.000000 1024.000000"
 preserveAspectRatio="xMidYMid meet">

<g transform="translate(0.000000,1024.000000) scale(0.100000,-0.100000)"
fill="#000000" stroke="none">
<path d="M2937 7625 c-66 -8 -121 -16 -124 -19 -10 -10 109 -131 162 -164 66
-42 141 -62 235 -62 93 0 112 11 206 115 68 76 102 124 87 126 -4 0 -26 3 -48
5 -98 12 -408 11 -518 -1z"/>
<path d="M6450 7634 c0 -4 17 -32 38 -62 75 -109 92 -137 92 -154 0 -24 12
-26 148 -20 132 5 145 0 92 -38 -29 -21 -30 -24 -24 -73 3 -29 19 -104 35
-167 17 -63 43 -178 59 -255 16 -77 39 -178 50 -225 11 -47 26 -116 34 -155 8
-38 26 -117 39 -175 14 -58 28 -127 32 -155 9 -66 36 -178 45 -188 13 -14 45
9 76 55 16 23 46 59 66 80 21 20 52 57 70 81 111 149 181 237 189 237 5 0 26
26 46 58 20 31 61 84 91 117 29 33 61 74 69 90 24 46 156 176 172 170 7 -3 33
11 58 31 41 33 43 37 26 49 -35 24 -160 65 -273 90 -143 31 -162 36 -280 69
-52 15 -120 33 -150 41 -30 7 -82 21 -115 30 -33 9 -94 25 -135 36 -125 33
-149 41 -164 58 -14 15 -13 20 4 46 10 15 83 94 162 174 l143 146 -165 6
c-234 9 -530 10 -530 3z"/>
<path d="M1885 7448 c-2 -7 -14 -44 -25 -83 -12 -38 -32 -99 -45 -135 -26 -72
-46 -142 -41 -147 1 -1 39 -12 84 -23 56 -14 88 -18 100 -11 10 5 41 36 69 68
28 32 95 103 149 158 l98 100 -40 8 c-21 5 -105 24 -185 43 -167 39 -158 38
-164 22z"/>
<path d="M7975 7435 c-49 -7 -119 -21 -155 -30 -36 -9 -75 -19 -87 -22 -13 -3
-23 -10 -23 -15 0 -5 27 -41 61 -81 149 -177 212 -225 363 -278 94 -33 129
-34 134 -6 3 12 -7 22 -33 33 -21 8 -49 33 -68 60 -29 41 -32 53 -33 124 -1
49 -8 91 -18 110 -24 49 -31 101 -15 111 18 11 -10 10 -126 -6z"/>
<path d="M6554 7289 c-12 -6 -32 -30 -44 -52 -13 -23 -28 -49 -35 -57 -24 -29
-55 -131 -55 -181 0 -65 21 -105 59 -114 47 -10 94 16 126 71 15 27 38 60 51
74 51 55 73 195 37 239 -21 25 -105 37 -139 20z"/>
<path d="M3137 7273 c-15 -2 -38 -15 -52 -29 -13 -13 -36 -24 -50 -24 -14 0
-58 -9 -98 -21 -39 -11 -94 -27 -122 -34 -27 -8 -84 -24 -125 -35 -41 -12 -93
-25 -115 -30 -22 -5 -69 -18 -104 -29 -35 -12 -91 -25 -125 -31 -33 -5 -126
-28 -206 -51 -115 -33 -150 -48 -172 -70 -26 -28 -27 -28 -70 -14 -120 39
-172 55 -183 55 -15 0 -63 -75 -103 -160 -17 -36 -51 -96 -76 -133 -29 -44
-39 -66 -28 -62 30 13 342 83 418 95 94 14 94 14 95 78 2 111 0 107 41 110 29
2 39 -1 48 -18 6 -11 43 -58 83 -105 40 -46 101 -118 137 -160 36 -42 79 -99
97 -127 17 -27 56 -75 86 -107 30 -31 62 -72 72 -91 10 -19 40 -60 68 -90 27
-30 60 -70 72 -90 12 -19 30 -42 40 -50 10 -8 36 -37 57 -63 38 -49 42 -49 51
3 8 46 107 484 127 565 11 44 20 89 20 100 0 24 35 175 61 265 11 36 19 77 19
92 0 15 5 39 11 55 6 15 15 54 19 87 5 32 11 60 13 63 17 16 117 -75 117 -105
0 -6 15 -28 34 -50 18 -23 39 -62 45 -88 15 -60 33 -73 97 -74 95 0 117 43 81
160 -9 30 -21 74 -27 96 -13 53 -44 93 -86 110 -32 13 -197 17 -267 7z"/>
<path d="M7982 6882 c-34 -32 -42 -46 -42 -75 0 -66 13 -83 72 -96 169 -37
283 -66 432 -109 17 -4 14 5 -18 59 -20 35 -54 101 -76 147 -21 45 -40 83 -42
83 -2 1 -57 5 -123 9 -66 4 -129 10 -141 14 -15 6 -30 -2 -62 -32z"/>
<path d="M4825 6454 c-261 -31 -461 -82 -660 -169 -82 -36 -170 -78 -195 -93
-25 -16 -56 -35 -70 -43 -14 -8 -41 -26 -61 -41 -20 -16 -40 -28 -45 -28 -13
0 -134 -82 -134 -91 0 -4 -26 -23 -57 -42 -32 -19 -87 -63 -123 -98 -36 -35
-83 -77 -104 -93 -21 -16 -44 -43 -52 -61 -7 -18 -35 -51 -62 -74 -75 -62 -97
-119 -96 -251 0 -129 13 -162 94 -245 162 -165 192 -195 262 -260 93 -86 165
-141 288 -221 52 -34 114 -76 138 -93 24 -18 71 -42 105 -55 34 -13 105 -43
157 -66 251 -111 627 -170 905 -140 123 13 313 48 385 72 147 48 237 81 266
99 18 11 57 28 88 39 31 10 82 37 114 58 54 37 99 65 167 107 90 56 285 222
384 329 25 27 108 111 184 187 142 144 161 175 118 198 -13 8 -20 25 -24 58
-6 66 -23 124 -38 133 -6 4 -38 13 -70 20 -55 12 -61 16 -107 76 -111 145
-349 367 -438 408 -17 8 -36 22 -43 30 -8 9 -39 30 -70 48 -31 17 -71 43 -89
56 -18 14 -61 35 -95 47 -34 13 -111 43 -170 68 -59 25 -129 49 -155 53 -26 4
-65 13 -87 21 -22 8 -69 18 -105 23 -36 5 -114 16 -175 24 -100 14 -252 19
-330 10z m405 -349 c203 -35 320 -74 520 -173 102 -50 176 -94 218 -129 34
-29 66 -53 71 -53 9 0 132 -111 206 -185 58 -59 128 -144 146 -179 15 -28 15
-32 0 -56 -22 -33 -200 -211 -237 -235 -16 -10 -49 -37 -74 -60 -25 -24 -71
-60 -104 -81 -140 -93 -256 -162 -281 -168 -15 -4 -59 -22 -99 -41 -40 -20
-96 -42 -126 -50 -30 -8 -89 -24 -130 -36 -93 -25 -277 -48 -390 -49 -210 -1
-469 53 -653 136 -42 19 -87 37 -99 39 -13 3 -35 14 -50 25 -47 34 -79 56
-183 122 -55 36 -121 86 -147 111 -26 26 -52 47 -58 47 -13 0 -238 221 -262
259 -10 14 -18 32 -18 39 0 17 209 223 256 253 21 12 58 42 83 66 25 23 71 56
102 73 31 16 62 37 70 46 7 8 36 27 63 41 28 14 62 33 76 43 97 67 429 180
595 203 82 11 425 6 505 -8z"/>
<path d="M4900 5889 c-36 -4 -88 -14 -116 -23 -109 -34 -228 -135 -287 -244
-51 -94 -71 -265 -43 -369 8 -29 12 -53 10 -53 -11 0 34 -91 64 -130 64 -82
125 -132 211 -172 73 -35 97 -41 176 -45 107 -7 169 5 270 52 137 63 231 175
265 315 24 103 25 176 4 277 -25 124 -57 175 -173 276 -104 90 -235 130 -381
116z"/>
<path d="M1887 3663 c-4 -3 -7 -94 -7 -201 0 -181 -1 -194 -17 -187 -104 44
-195 45 -280 2 -111 -57 -139 -121 -131 -303 6 -131 35 -198 100 -232 24 -13
54 -29 68 -37 61 -36 182 -6 235 56 31 37 45 30 45 -22 0 -39 0 -39 40 -39
l40 0 0 485 0 485 -43 0 c-24 0 -47 -3 -50 -7z m-75 -466 c26 -11 43 -28 59
-58 19 -38 21 -54 17 -141 -4 -86 -8 -102 -32 -137 -30 -42 -103 -81 -153 -81
-33 0 -94 35 -121 70 -32 41 -45 107 -38 188 3 40 12 85 20 101 37 72 152 99
248 58z"/>
<path d="M2755 3578 c-2 -7 -9 -35 -15 -63 -10 -48 -62 -221 -100 -335 -30
-88 -59 -192 -66 -235 -3 -22 -19 -79 -35 -127 -16 -48 -29 -92 -29 -97 0 -6
20 -11 45 -11 44 0 44 0 55 43 5 23 21 76 34 117 l24 75 137 5 c86 3 139 1
143 -5 4 -5 22 -59 42 -120 l36 -110 42 -3 c23 -2 42 0 42 4 0 4 -11 44 -24
88 -14 45 -32 108 -41 141 -24 86 -57 201 -105 355 -23 74 -52 169 -65 210
l-23 75 -46 3 c-31 2 -48 -1 -51 -10z m72 -220 c38 -109 74 -239 76 -273 l2
-40 -102 -3 c-117 -3 -113 -7 -84 84 10 32 28 94 40 137 38 139 48 152 68 95z"/>
<path d="M8160 3551 c0 -13 -10 -20 -32 -25 -41 -8 -58 -23 -58 -53 0 -17 10
-29 32 -41 64 -34 69 -45 66 -130 l-3 -77 -87 -3 -88 -3 0 -34 0 -34 88 -3 87
-3 3 -202 2 -203 40 0 40 0 2 203 3 202 93 3 92 3 0 39 0 40 -95 0 -95 0 0 86
c0 80 2 89 25 110 16 15 25 34 25 53 0 27 -5 31 -41 41 -27 7 -43 18 -46 31
-7 26 -53 26 -53 0z"/>
<path d="M7022 3453 l3 -48 129 -3 129 -3 -6 -344 -6 -345 44 0 45 0 0 350 0
350 130 0 130 0 0 45 0 45 -87 0 c-128 0 -193 -10 -193 -28 0 -12 -4 -12 -21
4 -18 16 -40 19 -161 22 l-139 4 3 -49z"/>
<path d="M4230 3386 l0 -96 -60 0 -60 0 0 -50 0 -50 55 0 55 0 0 -191 c0 -224
5 -240 92 -283 104 -52 228 -17 228 63 0 40 -12 45 -52 21 -51 -31 -101 -26
-143 13 -19 17 -35 39 -36 47 -1 8 -1 86 0 173 l1 157 115 0 115 0 0 50 0 50
-110 0 -110 0 -2 78 c0 42 -1 84 -2 92 -1 10 -14 16 -43 18 l-43 3 0 -95z"/>
<path d="M5147 3453 c-4 -3 -7 -172 -7 -375 l0 -368 34 0 c31 0 34 3 40 38 3
20 6 137 6 260 0 122 3 222 8 222 9 0 51 -54 82 -105 13 -22 48 -69 77 -104
29 -36 62 -85 73 -109 12 -24 40 -65 63 -90 24 -26 54 -64 67 -85 21 -31 30
-37 55 -35 l30 3 3 378 2 377 -40 0 -40 0 0 -281 c0 -154 -4 -279 -8 -277 -16
6 -118 133 -147 181 -15 27 -48 72 -71 100 -24 28 -55 73 -69 99 -14 27 -47
75 -72 106 -57 70 -71 81 -86 65z"/>
<path d="M3557 3333 c-4 -3 -7 -145 -7 -315 0 -338 -1 -333 59 -312 l26 10 0
140 c0 140 0 140 35 210 44 89 70 111 142 120 60 7 68 15 68 75 0 23 -5 27
-41 32 -77 10 -140 -28 -175 -106 l-19 -41 -6 29 c-4 17 -7 58 -8 91 -1 46 -5
63 -17 68 -21 8 -49 8 -57 -1z"/>
<path d="M6321 3300 c-51 -11 -71 -23 -129 -79 -63 -60 -82 -111 -84 -218 -1
-112 17 -157 86 -220 71 -64 116 -83 202 -83 92 0 148 20 202 73 89 86 121
205 88 321 -21 70 -97 158 -163 188 -50 22 -142 30 -202 18z m172 -108 c34
-16 67 -35 73 -43 22 -29 46 -106 46 -149 0 -59 -37 -157 -65 -172 -42 -23
-121 -48 -154 -48 -49 0 -115 28 -145 63 -81 91 -70 272 19 333 75 51 138 55
226 16z"/>
<path d="M10080 80 l0 -80 80 0 80 0 0 80 0 80 -80 0 -80 0 0 -80z"/>
</g>
</svg>
